<mxfile host="Electron" agent="Mozilla/5.0 (Windows NT 10.0; Win64; x64) AppleWebKit/537.36 (KHTML, like Gecko) draw.io/24.7.17 Chrome/128.0.6613.36 Electron/32.0.1 Safari/537.36" version="24.7.17">
  <diagram name="第 1 页" id="tJ9g8F0CqK2qhfAkMCpB">
    <mxGraphModel dx="1219" dy="1122" grid="0" gridSize="10" guides="1" tooltips="1" connect="1" arrows="1" fold="1" page="0" pageScale="1" pageWidth="1169" pageHeight="827" math="0" shadow="0">
      <root>
        <mxCell id="0" />
        <mxCell id="1" parent="0" />
        <mxCell id="cD0MBn1zsckQuTkFgJYS-1" value="&lt;b&gt;&lt;font style=&quot;font-size: 16px;&quot;&gt;Frontend&lt;/font&gt;&lt;/b&gt;" style="verticalAlign=top;align=left;spacingTop=8;spacingLeft=2;spacingRight=12;shape=cube;size=10;direction=south;fontStyle=4;html=1;whiteSpace=wrap;fillColor=#b1ddf0;strokeColor=#10739e;" vertex="1" parent="1">
          <mxGeometry x="150" width="90" height="150" as="geometry" />
        </mxCell>
        <mxCell id="cD0MBn1zsckQuTkFgJYS-3" value="tools" style="shape=umlFrame;whiteSpace=wrap;html=1;pointerEvents=0;fillColor=#b1ddf0;strokeColor=#10739e;strokeWidth=3;" vertex="1" parent="1">
          <mxGeometry x="290" width="450" height="140" as="geometry" />
        </mxCell>
        <mxCell id="cD0MBn1zsckQuTkFgJYS-4" value="&lt;b&gt;&lt;font style=&quot;font-size: 16px;&quot;&gt;Backend&lt;/font&gt;&lt;/b&gt;" style="verticalAlign=top;align=left;spacingTop=8;spacingLeft=2;spacingRight=12;shape=cube;size=10;direction=south;fontStyle=4;html=1;whiteSpace=wrap;fillColor=#b0e3e6;strokeColor=#0e8088;" vertex="1" parent="1">
          <mxGeometry x="150" y="230" width="80" height="150" as="geometry" />
        </mxCell>
        <mxCell id="cD0MBn1zsckQuTkFgJYS-5" value="tools" style="shape=umlFrame;whiteSpace=wrap;html=1;pointerEvents=0;fillColor=#b0e3e6;strokeColor=#0e8088;strokeWidth=3;" vertex="1" parent="1">
          <mxGeometry x="280" y="230" width="460" height="140" as="geometry" />
        </mxCell>
        <mxCell id="cD0MBn1zsckQuTkFgJYS-6" value="&lt;font style=&quot;font-size: 16px;&quot;&gt;&lt;b&gt;Cache&lt;/b&gt;&lt;/font&gt;" style="verticalAlign=top;align=left;spacingTop=8;spacingLeft=2;spacingRight=12;shape=cube;size=10;direction=south;fontStyle=4;html=1;whiteSpace=wrap;fillColor=#bac8d3;strokeColor=#23445d;" vertex="1" parent="1">
          <mxGeometry x="150" y="414" width="80" height="56" as="geometry" />
        </mxCell>
        <mxCell id="cD0MBn1zsckQuTkFgJYS-7" value="tools" style="shape=umlFrame;whiteSpace=wrap;html=1;pointerEvents=0;fillColor=#bac8d3;strokeColor=#23445d;strokeWidth=3;" vertex="1" parent="1">
          <mxGeometry x="280" y="414" width="460" height="56" as="geometry" />
        </mxCell>
        <mxCell id="cD0MBn1zsckQuTkFgJYS-8" value="&lt;b&gt;&lt;font style=&quot;font-size: 16px;&quot;&gt;DataBase&lt;/font&gt;&lt;/b&gt;" style="verticalAlign=top;align=left;spacingTop=8;spacingLeft=2;spacingRight=12;shape=cube;size=10;direction=south;fontStyle=4;html=1;whiteSpace=wrap;fillColor=#d5e8d4;strokeColor=#82b366;gradientColor=#97d077;" vertex="1" parent="1">
          <mxGeometry x="150" y="500" width="80" height="90" as="geometry" />
        </mxCell>
        <mxCell id="cD0MBn1zsckQuTkFgJYS-9" value="tools" style="shape=umlFrame;whiteSpace=wrap;html=1;pointerEvents=0;fillColor=#d5e8d4;gradientColor=#97d077;strokeColor=#82b366;strokeWidth=4;" vertex="1" parent="1">
          <mxGeometry x="280" y="500" width="460" height="90" as="geometry" />
        </mxCell>
        <mxCell id="cD0MBn1zsckQuTkFgJYS-12" value="&lt;b&gt;&lt;font style=&quot;font-size: 16px;&quot;&gt;localStorage&lt;/font&gt;&lt;/b&gt;" style="shape=module;align=left;spacingLeft=20;align=center;verticalAlign=top;whiteSpace=wrap;html=1;fillColor=#fff2cc;gradientColor=#ffd966;strokeColor=#d6b656;" vertex="1" parent="1">
          <mxGeometry y="160" width="130" height="60" as="geometry" />
        </mxCell>
        <mxCell id="cD0MBn1zsckQuTkFgJYS-14" value="Vue3.0" style="swimlane;fontStyle=1;childLayout=stackLayout;horizontal=1;startSize=26;fillColor=#b1ddf0;horizontalStack=0;resizeParent=1;resizeParentMax=0;resizeLast=0;collapsible=1;marginBottom=0;whiteSpace=wrap;html=1;strokeColor=#10739e;" vertex="1" parent="1">
          <mxGeometry x="630" y="30" width="100" height="90" as="geometry" />
        </mxCell>
        <mxCell id="cD0MBn1zsckQuTkFgJYS-15" value="Composition API&lt;div&gt;Vue Router&lt;br&gt;Pinia&lt;/div&gt;" style="text;strokeColor=#10739e;fillColor=#b1ddf0;align=left;verticalAlign=top;spacingLeft=4;spacingRight=4;overflow=hidden;rotatable=0;points=[[0,0.5],[1,0.5]];portConstraint=eastwest;whiteSpace=wrap;html=1;fontStyle=1" vertex="1" parent="cD0MBn1zsckQuTkFgJYS-14">
          <mxGeometry y="26" width="100" height="64" as="geometry" />
        </mxCell>
        <mxCell id="cD0MBn1zsckQuTkFgJYS-18" value="TypeScript" style="html=1;whiteSpace=wrap;fillColor=#b1ddf0;strokeColor=#10739e;fontStyle=1" vertex="1" parent="1">
          <mxGeometry x="370" y="10" width="110" height="30" as="geometry" />
        </mxCell>
        <mxCell id="cD0MBn1zsckQuTkFgJYS-19" value="Element Plus UI" style="html=1;whiteSpace=wrap;fillColor=#b1ddf0;strokeColor=#10739e;fontStyle=1" vertex="1" parent="1">
          <mxGeometry x="500" y="40" width="110" height="30" as="geometry" />
        </mxCell>
        <mxCell id="cD0MBn1zsckQuTkFgJYS-20" value="Sassy CSS" style="html=1;whiteSpace=wrap;fillColor=#b1ddf0;strokeColor=#10739e;fontStyle=1" vertex="1" parent="1">
          <mxGeometry x="500" y="90" width="110" height="30" as="geometry" />
        </mxCell>
        <mxCell id="cD0MBn1zsckQuTkFgJYS-22" value="Axios" style="html=1;whiteSpace=wrap;fillColor=#b1ddf0;strokeColor=#10739e;fontStyle=1" vertex="1" parent="1">
          <mxGeometry x="400" y="55" width="80" height="30" as="geometry" />
        </mxCell>
        <mxCell id="cD0MBn1zsckQuTkFgJYS-23" value="Markdown" style="swimlane;fontStyle=1;childLayout=stackLayout;horizontal=1;startSize=26;fillColor=#b1ddf0;horizontalStack=0;resizeParent=1;resizeParentMax=0;resizeLast=0;collapsible=1;marginBottom=0;whiteSpace=wrap;html=1;strokeColor=#10739e;" vertex="1" parent="1">
          <mxGeometry x="300" y="60" width="90" height="70" as="geometry" />
        </mxCell>
        <mxCell id="cD0MBn1zsckQuTkFgJYS-24" value="Marked&lt;br&gt;Highlight.js" style="text;strokeColor=#10739e;fillColor=#b1ddf0;align=left;verticalAlign=top;spacingLeft=4;spacingRight=4;overflow=hidden;rotatable=0;points=[[0,0.5],[1,0.5]];portConstraint=eastwest;whiteSpace=wrap;html=1;fontStyle=1" vertex="1" parent="cD0MBn1zsckQuTkFgJYS-23">
          <mxGeometry y="26" width="90" height="44" as="geometry" />
        </mxCell>
        <mxCell id="cD0MBn1zsckQuTkFgJYS-25" value="Vite" style="html=1;whiteSpace=wrap;fillColor=#b1ddf0;strokeColor=#10739e;fontStyle=1" vertex="1" parent="1">
          <mxGeometry x="400" y="100" width="80" height="30" as="geometry" />
        </mxCell>
        <mxCell id="cD0MBn1zsckQuTkFgJYS-26" value="SpringBoot" style="html=1;whiteSpace=wrap;fillColor=#b0e3e6;strokeColor=#0e8088;fontStyle=1" vertex="1" parent="1">
          <mxGeometry x="310" y="270" width="100" height="30" as="geometry" />
        </mxCell>
        <mxCell id="cD0MBn1zsckQuTkFgJYS-27" value="Mybatis-Plus" style="html=1;whiteSpace=wrap;fillColor=#b0e3e6;strokeColor=#0e8088;fontStyle=1" vertex="1" parent="1">
          <mxGeometry x="310" y="320" width="100" height="30" as="geometry" />
        </mxCell>
        <mxCell id="cD0MBn1zsckQuTkFgJYS-28" value="Spring Security" style="html=1;whiteSpace=wrap;fillColor=#b0e3e6;strokeColor=#0e8088;fontStyle=1" vertex="1" parent="1">
          <mxGeometry x="435" y="270" width="100" height="30" as="geometry" />
        </mxCell>
        <mxCell id="cD0MBn1zsckQuTkFgJYS-29" value="Lombok" style="html=1;whiteSpace=wrap;fillColor=#b0e3e6;strokeColor=#0e8088;fontStyle=1" vertex="1" parent="1">
          <mxGeometry x="435" y="320" width="100" height="30" as="geometry" />
        </mxCell>
        <mxCell id="cD0MBn1zsckQuTkFgJYS-30" value="Spring Task" style="html=1;whiteSpace=wrap;fillColor=#b0e3e6;strokeColor=#0e8088;fontStyle=1" vertex="1" parent="1">
          <mxGeometry x="590" y="270" width="100" height="30" as="geometry" />
        </mxCell>
        <mxCell id="cD0MBn1zsckQuTkFgJYS-31" value="JWT (JSON Web Token)" style="html=1;whiteSpace=wrap;fillColor=#b0e3e6;strokeColor=#0e8088;fontStyle=1" vertex="1" parent="1">
          <mxGeometry x="570" y="320" width="150" height="30" as="geometry" />
        </mxCell>
        <mxCell id="cD0MBn1zsckQuTkFgJYS-33" value="redis" style="html=1;whiteSpace=wrap;fillColor=#bac8d3;strokeColor=#23445d;fontStyle=1" vertex="1" parent="1">
          <mxGeometry x="440" y="427" width="100" height="30" as="geometry" />
        </mxCell>
        <mxCell id="cD0MBn1zsckQuTkFgJYS-34" value="MySql" style="html=1;whiteSpace=wrap;fillColor=#d5e8d4;gradientColor=#97d077;strokeColor=#82b366;fontStyle=1" vertex="1" parent="1">
          <mxGeometry x="435" y="525" width="100" height="30" as="geometry" />
        </mxCell>
        <mxCell id="cD0MBn1zsckQuTkFgJYS-46" value="" style="endArrow=classic;startArrow=classic;html=1;rounded=0;entryX=0;entryY=0;entryDx=80;entryDy=80;entryPerimeter=0;exitX=0.692;exitY=1.018;exitDx=0;exitDy=0;exitPerimeter=0;strokeWidth=3;strokeColor=#00ff4c;" edge="1" parent="1" source="cD0MBn1zsckQuTkFgJYS-8" target="cD0MBn1zsckQuTkFgJYS-4">
          <mxGeometry width="50" height="50" relative="1" as="geometry">
            <mxPoint x="480" y="410" as="sourcePoint" />
            <mxPoint x="530" y="360" as="targetPoint" />
            <Array as="points">
              <mxPoint x="40" y="560" />
              <mxPoint x="40" y="310" />
            </Array>
          </mxGeometry>
        </mxCell>
        <mxCell id="cD0MBn1zsckQuTkFgJYS-47" value="" style="endArrow=classic;startArrow=classic;html=1;rounded=0;entryX=0;entryY=0;entryDx=150;entryDy=45;entryPerimeter=0;strokeWidth=3;strokeColor=#33ccff;" edge="1" parent="1" target="cD0MBn1zsckQuTkFgJYS-4">
          <mxGeometry width="50" height="50" relative="1" as="geometry">
            <mxPoint x="185" y="420" as="sourcePoint" />
            <mxPoint x="530" y="360" as="targetPoint" />
          </mxGeometry>
        </mxCell>
        <mxCell id="cD0MBn1zsckQuTkFgJYS-48" value="" style="endArrow=classic;startArrow=classic;html=1;rounded=0;entryX=0;entryY=0;entryDx=150;entryDy=50;entryPerimeter=0;strokeWidth=3;strokeColor=#00ffd5;" edge="1" parent="1" source="cD0MBn1zsckQuTkFgJYS-4" target="cD0MBn1zsckQuTkFgJYS-1">
          <mxGeometry width="50" height="50" relative="1" as="geometry">
            <mxPoint x="480" y="290" as="sourcePoint" />
            <mxPoint x="530" y="240" as="targetPoint" />
          </mxGeometry>
        </mxCell>
        <mxCell id="cD0MBn1zsckQuTkFgJYS-49" value="" style="endArrow=classic;startArrow=classic;html=1;rounded=0;exitX=0;exitY=0;exitDx=80;exitDy=90;exitPerimeter=0;entryX=0.5;entryY=0;entryDx=0;entryDy=0;strokeWidth=3;fillColor=#f9f7ed;strokeColor=#66fff5;" edge="1" parent="1" source="cD0MBn1zsckQuTkFgJYS-1" target="cD0MBn1zsckQuTkFgJYS-12">
          <mxGeometry width="50" height="50" relative="1" as="geometry">
            <mxPoint x="480" y="290" as="sourcePoint" />
            <mxPoint x="530" y="240" as="targetPoint" />
            <Array as="points">
              <mxPoint x="65" y="80" />
            </Array>
          </mxGeometry>
        </mxCell>
      </root>
    </mxGraphModel>
  </diagram>
</mxfile>
